<?xml version="1.0" encoding="UTF-8" standalone="no"?>
<svg
   xmlns:dc="http://purl.org/dc/elements/1.1/"
   xmlns:cc="http://creativecommons.org/ns#"
   xmlns:rdf="http://www.w3.org/1999/02/22-rdf-syntax-ns#"
   xmlns:svg="http://www.w3.org/2000/svg"
   xmlns="http://www.w3.org/2000/svg"
   xmlns:sodipodi="http://sodipodi.sourceforge.net/DTD/sodipodi-0.dtd"
   xmlns:inkscape="http://www.inkscape.org/namespaces/inkscape"
   inkscape:version="1.0 (6e3e5246a0, 2020-05-07)"
   sodipodi:docname="grade-24px.svg"
   id="svg7674"
   version="1.1"
   width="24"
   viewBox="0 0 24 24"
   height="24">
  <metadata
     id="metadata7680">
    <rdf:RDF>
      <cc:Work
         rdf:about="">
        <dc:format>image/svg+xml</dc:format>
        <dc:type
           rdf:resource="http://purl.org/dc/dcmitype/StillImage" />
      </cc:Work>
    </rdf:RDF>
  </metadata>
  <defs
     id="defs7678" />
  <sodipodi:namedview
     inkscape:current-layer="svg7674"
     inkscape:window-maximized="1"
     inkscape:window-y="27"
     inkscape:window-x="0"
     inkscape:cy="12"
     inkscape:cx="4.770318"
     inkscape:zoom="23.583333"
     showgrid="false"
     id="namedview7676"
     inkscape:window-height="713"
     inkscape:window-width="1366"
     inkscape:pageshadow="2"
     inkscape:pageopacity="0"
     guidetolerance="10"
     gridtolerance="10"
     objecttolerance="10"
     borderopacity="1"
     bordercolor="#666666"
     pagecolor="#ffffff" />
  <path
     id="path7668"
     fill="none"
     d="M0 0h24v24H0V0z" />
  <path
     style="fill:#a32c36;fill-opacity:1;opacity:1"
     id="path7670"
     opacity=".3"
     d="M17.11 10.83l-2.47-.21-1.2-.1-.47-1.11L12 7.13l-.97 2.28-.47 1.11-1.2.1-2.47.21 1.88 1.63.91.79-.27 1.17-.57 2.42 2.13-1.28 1.03-.63 1.03.63 2.13 1.28-.57-2.42-.27-1.17.91-.79z" />
  <path
     id="path7672"
     d="M22 9.24l-7.19-.61L12 2 9.19 8.63 2 9.24l5.46 4.73L5.82 21 12 17.27 18.18 21l-1.64-7.03L22 9.24zm-7.41 5.18l.56 2.41-2.12-1.28-1.03-.62-1.03.62-2.12 1.28.56-2.41.27-1.18-.91-.79-1.88-1.63 2.47-.21 1.2-.1.47-1.11.97-2.27.97 2.29.47 1.11 1.2.1 2.47.21-1.88 1.63-.91.79.27 1.16z" />
</svg>
