<?xml version="1.0" encoding="UTF-8" standalone="no"?>
<svg
   xmlns:dc="http://purl.org/dc/elements/1.1/"
   xmlns:cc="http://creativecommons.org/ns#"
   xmlns:rdf="http://www.w3.org/1999/02/22-rdf-syntax-ns#"
   xmlns:svg="http://www.w3.org/2000/svg"
   xmlns="http://www.w3.org/2000/svg"
   xmlns:xlink="http://www.w3.org/1999/xlink"
   xmlns:sodipodi="http://sodipodi.sourceforge.net/DTD/sodipodi-0.dtd"
   xmlns:inkscape="http://www.inkscape.org/namespaces/inkscape"
   width="54.747952mm"
   height="54.747952mm"
   viewBox="0 0 54.747952 54.747952"
   version="1.1"
   id="svg8"
   inkscape:version="1.0 (6e3e5246a0, 2020-05-07)"
   sodipodi:docname="achievTelaInicio.svg">
  <defs
     id="defs2">
    <linearGradient
       inkscape:collect="always"
       id="linearGradient1481">
      <stop
         style="stop-color:#1d462d;stop-opacity:1;"
         offset="0"
         id="stop1477" />
      <stop
         style="stop-color:#1d462d;stop-opacity:0;"
         offset="1"
         id="stop1479" />
    </linearGradient>
    <linearGradient
       inkscape:collect="always"
       xlink:href="#linearGradient1481"
       id="linearGradient1997"
       x1="32.674828"
       y1="148.88138"
       x2="49.134739"
       y2="168.7562"
       gradientUnits="userSpaceOnUse" />
  </defs>
  <sodipodi:namedview
     fit-margin-bottom="0"
     fit-margin-right="0"
     fit-margin-left="0"
     fit-margin-top="0"
     id="base"
     pagecolor="#ffffff"
     bordercolor="#666666"
     borderopacity="1.0"
     inkscape:pageopacity="0.0"
     inkscape:pageshadow="2"
     inkscape:zoom="0.49497475"
     inkscape:cx="16.720437"
     inkscape:cy="248.18371"
     inkscape:document-units="mm"
     inkscape:current-layer="layer1"
     inkscape:document-rotation="0"
     showgrid="false"
     inkscape:window-width="1366"
     inkscape:window-height="713"
     inkscape:window-x="0"
     inkscape:window-y="27"
     inkscape:window-maximized="1" />
  <metadata
     id="metadata5">
    <rdf:RDF>
      <cc:Work
         rdf:about="">
        <dc:format>image/svg+xml</dc:format>
        <dc:type
           rdf:resource="http://purl.org/dc/dcmitype/StillImage" />
        <dc:title></dc:title>
      </cc:Work>
    </rdf:RDF>
  </metadata>
  <g
     transform="translate(-4.5151771,-125.45609)"
     inkscape:label="Layer 1"
     inkscape:groupmode="layer"
     id="layer1">
    <path
       sodipodi:open="true"
       d="M 58.571003,152.83006 A 26.68185,26.68185 0 0 1 31.8894,179.51191 26.68185,26.68185 0 0 1 5.2073021,152.83056 26.68185,26.68185 0 0 1 31.88841,126.14821 26.68185,26.68185 0 0 1 58.571003,152.82907"
       sodipodi:arc-type="arc"
       sodipodi:end="6.2831482"
       sodipodi:start="0"
       sodipodi:ry="26.68185"
       sodipodi:rx="26.68185"
       sodipodi:cy="152.83006"
       sodipodi:cx="31.889153"
       sodipodi:type="arc"
       id="path14-9"
       style="fill:#a42d37;fill-opacity:1;fill-rule:evenodd;stroke:#000000;stroke-width:1.38425;stroke-miterlimit:4;stroke-dasharray:none;stroke-opacity:1" />
    <path
       d="M 57.977787,152.73245 A 25.993687,26.025116 0 0 1 31.984327,178.75757 25.993687,26.025116 0 0 1 5.9904137,152.73291 25.993687,26.025116 0 0 1 31.98342,126.70734 a 25.993687,26.025116 0 0 1 25.994367,26.0242"
       sodipodi:arc-type="arc"
       sodipodi:open="true"
       sodipodi:end="6.2831504"
       sodipodi:start="0"
       sodipodi:ry="26.025116"
       sodipodi:rx="25.993687"
       sodipodi:cy="152.73245"
       sodipodi:cx="31.9841"
       sodipodi:type="arc"
       id="path839-4"
       style="fill:#eae7e7;fill-opacity:1;stroke:#000000;stroke-width:1.35934;stroke-miterlimit:4;stroke-dasharray:0, 14.9527;stroke-dashoffset:0;stroke-opacity:1" />
    <path
       style="fill:#a32c36;fill-opacity:1;stroke:#000000;stroke-width:1.34214;stroke-miterlimit:4;stroke-dasharray:0, 14.7634;stroke-dashoffset:0;stroke-opacity:1"
       id="path839-3-78"
       sodipodi:type="arc"
       sodipodi:cx="32.340343"
       sodipodi:cy="153.03467"
       sodipodi:rx="25.637445"
       sodipodi:ry="25.722897"
       sodipodi:start="0"
       sodipodi:end="6.2831504"
       sodipodi:open="true"
       sodipodi:arc-type="arc"
       d="m 57.977789,153.03467 a 25.637445,25.722897 0 0 1 -25.637222,25.72289 25.637445,25.722897 0 0 1 -25.637669,-25.72244 25.637445,25.722897 0 0 1 25.636774,-25.72335 25.637445,25.722897 0 0 1 25.638117,25.722" />
    <path
       style="mix-blend-mode:darken;fill:url(#linearGradient1997);fill-opacity:1;stroke:none;stroke-width:0.264583px;stroke-linecap:butt;stroke-linejoin:miter;stroke-opacity:1"
       d="m 41.656391,136.623 3.67619,3.67612 v 0 0 l 3.112844,1.70734 9.189273,14.849 -3.900776,10.22699 -9.992977,8.84359 -10.265706,2.36785 -10.199639,-8.58542 7.352296,-3.67618 -13.539273,-15.98555 2.510788,-6.07144 z"
       id="path1989"
       sodipodi:nodetypes="cccccccccccccc" />
    <path
       id="path1964"
       d="M 45.332581,140.29912 H 41.656392 V 136.623 H 23.2756 v 3.67612 h -3.676189 c -2.021877,0 -3.676189,1.65431 -3.676189,3.67618 v 1.83806 c 0,4.68713 3.52912,8.51039 8.069247,9.08019 1.157939,2.75708 3.639362,4.83412 6.635428,5.44068 v 5.69806 H 23.2756 v 3.67618 h 18.380792 v -3.67618 h -7.352305 v -5.69806 c 2.996074,-0.60649 5.477497,-2.6836 6.635436,-5.44068 4.540054,-0.56967 8.069174,-4.39306 8.069174,-9.08019 v -1.83806 c 0,-2.02187 -1.654239,-3.67618 -3.676116,-3.67618 z m -25.73317,5.51424 V 143.9753 H 23.2756 v 7.02149 c -2.132201,-0.77204 -3.676189,-2.79391 -3.676189,-5.18343 z m 25.73317,0 c 0,2.38952 -1.543989,4.41139 -3.676189,5.18343 v -7.02149 h 3.676189 z"
       style="fill:#eae7e7;fill-opacity:1;stroke-width:1.83808" />
  </g>
</svg>
