<?xml version="1.0" encoding="UTF-8" standalone="no"?>
<svg
   xmlns:dc="http://purl.org/dc/elements/1.1/"
   xmlns:cc="http://creativecommons.org/ns#"
   xmlns:rdf="http://www.w3.org/1999/02/22-rdf-syntax-ns#"
   xmlns:svg="http://www.w3.org/2000/svg"
   xmlns="http://www.w3.org/2000/svg"
   xmlns:xlink="http://www.w3.org/1999/xlink"
   xmlns:sodipodi="http://sodipodi.sourceforge.net/DTD/sodipodi-0.dtd"
   xmlns:inkscape="http://www.inkscape.org/namespaces/inkscape"
   width="54.747952mm"
   height="54.747952mm"
   viewBox="0 0 54.747952 54.747952"
   version="1.1"
   id="svg8"
   inkscape:version="1.0 (6e3e5246a0, 2020-05-07)"
   sodipodi:docname="achievOffTelaInicio.svg">
  <defs
     id="defs2">
    <linearGradient
       inkscape:collect="always"
       id="linearGradient1481">
      <stop
         style="stop-color:#1d462d;stop-opacity:1;"
         offset="0"
         id="stop1477" />
      <stop
         style="stop-color:#1d462d;stop-opacity:0;"
         offset="1"
         id="stop1479" />
    </linearGradient>
    <linearGradient
       gradientUnits="userSpaceOnUse"
       y2="168.7562"
       x2="49.134739"
       y1="148.88138"
       x1="32.674828"
       id="linearGradient1997-6"
       xlink:href="#linearGradient1481"
       inkscape:collect="always"
       gradientTransform="translate(61.440226,0.50634364)" />
  </defs>
  <sodipodi:namedview
     fit-margin-bottom="0"
     fit-margin-right="0"
     fit-margin-left="0"
     fit-margin-top="0"
     id="base"
     pagecolor="#ffffff"
     bordercolor="#666666"
     borderopacity="1.0"
     inkscape:pageopacity="0.0"
     inkscape:pageshadow="2"
     inkscape:zoom="0.49497475"
     inkscape:cx="-187.54354"
     inkscape:cy="253.55687"
     inkscape:document-units="mm"
     inkscape:current-layer="layer1"
     inkscape:document-rotation="0"
     showgrid="false"
     inkscape:window-width="1366"
     inkscape:window-height="713"
     inkscape:window-x="0"
     inkscape:window-y="27"
     inkscape:window-maximized="1" />
  <metadata
     id="metadata5">
    <rdf:RDF>
      <cc:Work
         rdf:about="">
        <dc:format>image/svg+xml</dc:format>
        <dc:type
           rdf:resource="http://purl.org/dc/dcmitype/StillImage" />
        <dc:title></dc:title>
      </cc:Work>
    </rdf:RDF>
  </metadata>
  <g
     transform="translate(-65.955401,-125.96244)"
     inkscape:label="Layer 1"
     inkscape:groupmode="layer"
     id="layer1">
    <path
       style="fill:#a42d37;fill-opacity:1;fill-rule:evenodd;stroke:#000000;stroke-width:1.38425;stroke-miterlimit:4;stroke-dasharray:none;stroke-opacity:1"
       id="path14-9-0"
       sodipodi:type="arc"
       sodipodi:cx="93.329376"
       sodipodi:cy="153.33641"
       sodipodi:rx="26.68185"
       sodipodi:ry="26.68185"
       sodipodi:start="0"
       sodipodi:end="6.2831482"
       sodipodi:arc-type="arc"
       d="M 120.01123,153.33641 A 26.68185,26.68185 0 0 1 93.329624,180.01826 26.68185,26.68185 0 0 1 66.647526,153.33691 26.68185,26.68185 0 0 1 93.328634,126.65456 26.68185,26.68185 0 0 1 120.01123,153.33542"
       sodipodi:open="true" />
    <path
       style="fill:#d5cfcf;fill-opacity:1;stroke:#000000;stroke-width:1.35934;stroke-miterlimit:4;stroke-dasharray:0, 14.9527;stroke-dashoffset:0;stroke-opacity:1"
       id="path839-4-6"
       sodipodi:type="arc"
       sodipodi:cx="93.424324"
       sodipodi:cy="153.2388"
       sodipodi:rx="25.993687"
       sodipodi:ry="26.025116"
       sodipodi:start="0"
       sodipodi:end="6.2831504"
       sodipodi:open="true"
       sodipodi:arc-type="arc"
       d="M 119.41801,153.2388 A 25.993687,26.025116 0 0 1 93.424551,179.26392 25.993687,26.025116 0 0 1 67.430637,153.23925 25.993687,26.025116 0 0 1 93.423644,127.21368 25.993687,26.025116 0 0 1 119.41801,153.23789" />
    <path
       d="M 119.41802,153.54102 A 25.637445,25.722897 0 0 1 93.780795,179.26391 25.637445,25.722897 0 0 1 68.143126,153.54146 25.637445,25.722897 0 0 1 93.7799,127.81812 a 25.637445,25.722897 0 0 1 25.63812,25.722"
       sodipodi:arc-type="arc"
       sodipodi:open="true"
       sodipodi:end="6.2831504"
       sodipodi:start="0"
       sodipodi:ry="25.722897"
       sodipodi:rx="25.637445"
       sodipodi:cy="153.54102"
       sodipodi:cx="93.780571"
       sodipodi:type="arc"
       id="path839-3-78-1"
       style="fill:#5c2837;fill-opacity:1;stroke:#000000;stroke-width:1.34214;stroke-miterlimit:4;stroke-dasharray:0, 14.7634;stroke-dashoffset:0;stroke-opacity:1" />
    <path
       sodipodi:nodetypes="cccccccccccccc"
       id="path1989-5"
       d="m 103.09662,137.12934 3.67619,3.67612 v 0 0 l 3.11284,1.70734 9.18928,14.84901 -3.90078,10.22699 -9.99298,8.84358 -10.265706,2.36785 -10.199638,-8.58542 7.352296,-3.67617 -13.539273,-15.98556 2.510788,-6.07144 z"
       style="mix-blend-mode:darken;fill:url(#linearGradient1997-6);fill-opacity:1;stroke:none;stroke-width:0.264583px;stroke-linecap:butt;stroke-linejoin:miter;stroke-opacity:1" />
    <path
       style="fill:#d5cfcf;fill-opacity:1;stroke-width:1.83808"
       d="m 106.77281,140.80546 h -3.67619 v -3.67612 H 84.715826 v 3.67612 h -3.676189 c -2.021877,0 -3.676189,1.65431 -3.676189,3.67618 v 1.83806 c 0,4.68713 3.52912,8.5104 8.069247,9.08019 1.157939,2.75708 3.639362,4.83412 6.635428,5.44068 v 5.69807 h -7.352297 v 3.67617 h 18.380794 v -3.67617 h -7.352306 v -5.69807 c 2.996073,-0.60648 5.477496,-2.6836 6.635436,-5.44068 4.54005,-0.56967 8.06917,-4.39306 8.06917,-9.08019 v -1.83806 c 0,-2.02187 -1.65424,-3.67618 -3.67611,-3.67618 z m -25.733173,5.51424 v -1.83806 h 3.676189 v 7.02149 c -2.132201,-0.77204 -3.676189,-2.79391 -3.676189,-5.18343 z m 25.733173,0 c 0,2.38952 -1.54399,4.41139 -3.67619,5.18343 v -7.02149 h 3.67619 z"
       id="path1964-5" />
  </g>
</svg>
