<?xml version="1.0" encoding="UTF-8" standalone="no"?>
<svg
   xmlns:dc="http://purl.org/dc/elements/1.1/"
   xmlns:cc="http://creativecommons.org/ns#"
   xmlns:rdf="http://www.w3.org/1999/02/22-rdf-syntax-ns#"
   xmlns:svg="http://www.w3.org/2000/svg"
   xmlns="http://www.w3.org/2000/svg"
   xmlns:xlink="http://www.w3.org/1999/xlink"
   xmlns:sodipodi="http://sodipodi.sourceforge.net/DTD/sodipodi-0.dtd"
   xmlns:inkscape="http://www.inkscape.org/namespaces/inkscape"
   width="54.747952mm"
   height="56.194408mm"
   viewBox="0 0 54.747952 56.194408"
   version="1.1"
   id="svg8"
   inkscape:version="1.0 (6e3e5246a0, 2020-05-07)"
   sodipodi:docname="infoTelaInicio.svg">
  <defs
     id="defs2">
    <linearGradient
       inkscape:collect="always"
       id="linearGradient1481">
      <stop
         style="stop-color:#1d462d;stop-opacity:1;"
         offset="0"
         id="stop1477" />
      <stop
         style="stop-color:#1d462d;stop-opacity:0;"
         offset="1"
         id="stop1479" />
    </linearGradient>
    <linearGradient
       inkscape:collect="always"
       xlink:href="#linearGradient1481"
       id="linearGradient1776"
       x1="36.95536"
       y1="81.862221"
       x2="53.635128"
       y2="96.871162"
       gradientUnits="userSpaceOnUse" />
    <linearGradient
       inkscape:collect="always"
       xlink:href="#linearGradient1481"
       id="linearGradient1786"
       x1="31.109118"
       y1="97.275482"
       x2="43.902172"
       y2="111.33803"
       gradientUnits="userSpaceOnUse"
       gradientTransform="translate(0.10713456,0.82429583)" />
  </defs>
  <sodipodi:namedview
     fit-margin-bottom="0"
     fit-margin-right="0"
     fit-margin-left="0"
     fit-margin-top="0"
     id="base"
     pagecolor="#ffffff"
     bordercolor="#666666"
     borderopacity="1.0"
     inkscape:pageopacity="0.0"
     inkscape:pageshadow="2"
     inkscape:zoom="0.49497475"
     inkscape:cx="-29.491617"
     inkscape:cy="196.79072"
     inkscape:document-units="mm"
     inkscape:current-layer="layer1"
     inkscape:document-rotation="0"
     showgrid="false"
     inkscape:window-width="1366"
     inkscape:window-height="713"
     inkscape:window-x="0"
     inkscape:window-y="27"
     inkscape:window-maximized="1" />
  <metadata
     id="metadata5">
    <rdf:RDF>
      <cc:Work
         rdf:about="">
        <dc:format>image/svg+xml</dc:format>
        <dc:type
           rdf:resource="http://purl.org/dc/dcmitype/StillImage" />
        <dc:title></dc:title>
      </cc:Work>
    </rdf:RDF>
  </metadata>
  <g
     transform="translate(-5.8054565,-65.595881)"
     inkscape:label="Layer 1"
     inkscape:groupmode="layer"
     id="layer1">
    <path
       sodipodi:open="true"
       d="M 59.861282,92.969856 A 26.68185,26.68185 0 0 1 33.179679,119.65171 26.68185,26.68185 0 0 1 6.4975815,92.970351 26.68185,26.68185 0 0 1 33.178689,66.288006 26.68185,26.68185 0 0 1 59.861282,92.968866"
       sodipodi:arc-type="arc"
       sodipodi:end="6.2831482"
       sodipodi:start="0"
       sodipodi:ry="26.68185"
       sodipodi:rx="26.68185"
       sodipodi:cy="92.969856"
       sodipodi:cx="33.179432"
       sodipodi:type="arc"
       id="path14-1"
       style="fill:#a42d37;fill-opacity:1;fill-rule:evenodd;stroke:#000000;stroke-width:1.38425;stroke-miterlimit:4;stroke-dasharray:none;stroke-opacity:1" />
    <path
       d="M 59.268066,92.872246 A 25.993687,26.025116 0 0 1 33.274607,118.89736 25.993687,26.025116 0 0 1 7.2806931,92.8727 25.993687,26.025116 0 0 1 33.273699,66.84713 25.993687,26.025116 0 0 1 59.268066,92.871337"
       sodipodi:arc-type="arc"
       sodipodi:open="true"
       sodipodi:end="6.2831504"
       sodipodi:start="0"
       sodipodi:ry="26.025116"
       sodipodi:rx="25.993687"
       sodipodi:cy="92.872246"
       sodipodi:cx="33.27438"
       sodipodi:type="arc"
       id="path839-8"
       style="fill:#eae7e7;fill-opacity:1;stroke:#000000;stroke-width:1.35934;stroke-miterlimit:4;stroke-dasharray:0, 14.9527;stroke-dashoffset:0;stroke-opacity:1" />
    <path
       style="fill:#a32c36;fill-opacity:1;stroke:#000000;stroke-width:1.34214;stroke-miterlimit:4;stroke-dasharray:0, 14.7634;stroke-dashoffset:0;stroke-opacity:1"
       id="path839-3-7"
       sodipodi:type="arc"
       sodipodi:cx="33.630627"
       sodipodi:cy="93.174469"
       sodipodi:rx="25.637445"
       sodipodi:ry="25.722897"
       sodipodi:start="0"
       sodipodi:end="6.2831504"
       sodipodi:open="true"
       sodipodi:arc-type="arc"
       d="M 59.268072,93.174469 A 25.637445,25.722897 0 0 1 33.63085,118.89737 25.637445,25.722897 0 0 1 7.9931812,93.174918 25.637445,25.722897 0 0 1 33.629955,67.451572 25.637445,25.722897 0 0 1 59.268072,93.173571" />
    <path
       style="opacity:0.897612;fill:url(#linearGradient1776);fill-opacity:1;stroke:none;stroke-width:0.264583px;stroke-linecap:butt;stroke-linejoin:miter;stroke-opacity:1"
       d="m 36.955362,74.654187 20.6087,22.280078 -5.474507,4.274565 -22.342258,-19.346613 7.208065,-7.20803"
       id="path1768" />
    <path
       style="fill:url(#linearGradient1786);fill-opacity:1;stroke:none;stroke-width:0.264583px;stroke-linecap:butt;stroke-linejoin:miter;stroke-opacity:1"
       d="M 36.312834,90.414267 56.422818,110.00562 44.131991,121.79029 30.638183,109.84328 Z"
       id="path1778"
       sodipodi:nodetypes="ccccc" />
    <path
       style="fill:#eae7e7;fill-opacity:1;stroke-width:3.60402"
       d="m 33.351261,110.69433 c -1.9822,0 -3.603965,-1.62182 -3.603965,-3.60403 V 92.674263 c 0,-1.982214 1.621765,-3.604006 3.603965,-3.604006 1.982336,0 3.604101,1.621792 3.604101,3.604006 V 107.0903 c 0,1.98221 -1.621765,3.60403 -3.604101,3.60403 z m 3.604101,-28.832113 h -7.208066 v -7.208028 h 7.208066 c 0,8.272385 0,5.068545 0,7.208028 z"
       id="path1704"
       sodipodi:nodetypes="sssssssccccc" />
  </g>
</svg>
