<?xml version="1.0" encoding="UTF-8" standalone="no"?>
<svg
   xmlns:dc="http://purl.org/dc/elements/1.1/"
   xmlns:cc="http://creativecommons.org/ns#"
   xmlns:rdf="http://www.w3.org/1999/02/22-rdf-syntax-ns#"
   xmlns:svg="http://www.w3.org/2000/svg"
   xmlns="http://www.w3.org/2000/svg"
   xmlns:xlink="http://www.w3.org/1999/xlink"
   xmlns:sodipodi="http://sodipodi.sourceforge.net/DTD/sodipodi-0.dtd"
   xmlns:inkscape="http://www.inkscape.org/namespaces/inkscape"
   width="54.747952mm"
   height="56.194412mm"
   viewBox="0 0 54.747952 56.194412"
   version="1.1"
   id="svg8"
   inkscape:version="1.0 (6e3e5246a0, 2020-05-07)"
   sodipodi:docname="infoOffTelaInicio.svg">
  <defs
     id="defs2">
    <linearGradient
       inkscape:collect="always"
       id="linearGradient1481">
      <stop
         style="stop-color:#1d462d;stop-opacity:1;"
         offset="0"
         id="stop1477" />
      <stop
         style="stop-color:#1d462d;stop-opacity:0;"
         offset="1"
         id="stop1479" />
    </linearGradient>
    <linearGradient
       gradientUnits="userSpaceOnUse"
       y2="96.871162"
       x2="53.635128"
       y1="81.862221"
       x1="36.95536"
       id="linearGradient1776-5"
       xlink:href="#linearGradient1481"
       inkscape:collect="always"
       gradientTransform="translate(59.730138,-0.26829797)" />
    <linearGradient
       gradientTransform="translate(59.837272,0.55599803)"
       gradientUnits="userSpaceOnUse"
       y2="111.33803"
       x2="43.902172"
       y1="97.275482"
       x1="31.109118"
       id="linearGradient1786-2"
       xlink:href="#linearGradient1481"
       inkscape:collect="always" />
  </defs>
  <sodipodi:namedview
     fit-margin-bottom="0"
     fit-margin-right="0"
     fit-margin-left="0"
     fit-margin-top="0"
     id="base"
     pagecolor="#ffffff"
     bordercolor="#666666"
     borderopacity="1.0"
     inkscape:pageopacity="0.0"
     inkscape:pageshadow="2"
     inkscape:zoom="0.49497475"
     inkscape:cx="-178.84712"
     inkscape:cy="448.86438"
     inkscape:document-units="mm"
     inkscape:current-layer="layer1"
     inkscape:document-rotation="0"
     showgrid="false"
     inkscape:window-width="1366"
     inkscape:window-height="713"
     inkscape:window-x="0"
     inkscape:window-y="27"
     inkscape:window-maximized="1" />
  <metadata
     id="metadata5">
    <rdf:RDF>
      <cc:Work
         rdf:about="">
        <dc:format>image/svg+xml</dc:format>
        <dc:type
           rdf:resource="http://purl.org/dc/dcmitype/StillImage" />
        <dc:title></dc:title>
      </cc:Work>
    </rdf:RDF>
  </metadata>
  <g
     transform="translate(-65.535593,-65.327578)"
     inkscape:label="Layer 1"
     inkscape:groupmode="layer"
     id="layer1">
    <path
       style="fill:#a42d37;fill-opacity:1;fill-rule:evenodd;stroke:#000000;stroke-width:1.38425;stroke-miterlimit:4;stroke-dasharray:none;stroke-opacity:1"
       id="path14-1-8"
       sodipodi:type="arc"
       sodipodi:cx="92.909569"
       sodipodi:cy="92.701553"
       sodipodi:rx="26.68185"
       sodipodi:ry="26.68185"
       sodipodi:start="0"
       sodipodi:end="6.2831482"
       sodipodi:arc-type="arc"
       d="M 119.59142,92.701553 A 26.68185,26.68185 0 0 1 92.909816,119.3834 26.68185,26.68185 0 0 1 66.227718,92.702048 26.68185,26.68185 0 0 1 92.908826,66.019703 26.68185,26.68185 0 0 1 119.59142,92.700563"
       sodipodi:open="true" />
    <path
       style="fill:#d5cfcf;fill-opacity:1;stroke:#000000;stroke-width:1.35934;stroke-miterlimit:4;stroke-dasharray:0, 14.9527;stroke-dashoffset:0;stroke-opacity:1"
       id="path839-8-9"
       sodipodi:type="arc"
       sodipodi:cx="93.004517"
       sodipodi:cy="92.603943"
       sodipodi:rx="25.993687"
       sodipodi:ry="26.025116"
       sodipodi:start="0"
       sodipodi:end="6.2831504"
       sodipodi:open="true"
       sodipodi:arc-type="arc"
       d="M 118.9982,92.603943 A 25.993687,26.025116 0 0 1 93.004743,118.62906 25.993687,26.025116 0 0 1 67.01083,92.604397 25.993687,26.025116 0 0 1 93.003836,66.578827 25.993687,26.025116 0 0 1 118.9982,92.603034" />
    <path
       d="M 118.99821,92.906166 A 25.637445,25.722897 0 0 1 93.360987,118.62906 25.637445,25.722897 0 0 1 67.723318,92.906615 25.637445,25.722897 0 0 1 93.360092,67.18327 25.637445,25.722897 0 0 1 118.99821,92.905268"
       sodipodi:arc-type="arc"
       sodipodi:open="true"
       sodipodi:end="6.2831504"
       sodipodi:start="0"
       sodipodi:ry="25.722897"
       sodipodi:rx="25.637445"
       sodipodi:cy="92.906166"
       sodipodi:cx="93.360764"
       sodipodi:type="arc"
       id="path839-3-7-7"
       style="fill:#5c2837;fill-opacity:1;stroke:#000000;stroke-width:1.34214;stroke-miterlimit:4;stroke-dasharray:0, 14.7634;stroke-dashoffset:0;stroke-opacity:1" />
    <path
       id="path1768-3"
       d="m 96.685504,74.385888 20.608706,22.280079 -5.47451,4.274563 -22.342266,-19.346612 7.20807,-7.20803"
       style="opacity:0.897612;mix-blend-mode:darken;fill:url(#linearGradient1776-5);fill-opacity:1;stroke:none;stroke-width:0.264583px;stroke-linecap:butt;stroke-linejoin:miter;stroke-opacity:1" />
    <path
       sodipodi:nodetypes="ccccc"
       id="path1778-6"
       d="M 96.042974,90.145969 116.15296,109.73732 103.86214,121.52199 90.368324,109.57498 Z"
       style="mix-blend-mode:darken;fill:url(#linearGradient1786-2);fill-opacity:1;stroke:none;stroke-width:0.264583px;stroke-linecap:butt;stroke-linejoin:miter;stroke-opacity:1" />
    <path
       sodipodi:nodetypes="sssssssccccc"
       id="path1704-1"
       d="m 93.081404,110.42603 c -1.9822,0 -3.60397,-1.62182 -3.60397,-3.60403 V 92.405964 c 0,-1.982214 1.62177,-3.604005 3.60397,-3.604005 1.98233,0 3.6041,1.621791 3.6041,3.604005 V 106.822 c 0,1.98221 -1.62177,3.60403 -3.6041,3.60403 z m 3.6041,-28.832112 h -7.20807 V 74.38589 h 7.20807 c 0,8.272385 0,5.068545 0,7.208028 z"
       style="fill:#d5cfcf;fill-opacity:1;stroke-width:3.60402" />
  </g>
</svg>
