<?xml version="1.0" encoding="UTF-8" standalone="no"?>
<svg
   xmlns:dc="http://purl.org/dc/elements/1.1/"
   xmlns:cc="http://creativecommons.org/ns#"
   xmlns:rdf="http://www.w3.org/1999/02/22-rdf-syntax-ns#"
   xmlns:svg="http://www.w3.org/2000/svg"
   xmlns="http://www.w3.org/2000/svg"
   xmlns:sodipodi="http://sodipodi.sourceforge.net/DTD/sodipodi-0.dtd"
   xmlns:inkscape="http://www.inkscape.org/namespaces/inkscape"
   height="19.55398"
   viewBox="0 0 19.55402 19.55398"
   width="19.55402"
   version="1.1"
   id="svg5249"
   sodipodi:docname="MusicOffTelaInicio.svg"
   inkscape:version="1.0 (6e3e5246a0, 2020-05-07)">
  <metadata
     id="metadata5255">
    <rdf:RDF>
      <cc:Work
         rdf:about="">
        <dc:format>image/svg+xml</dc:format>
        <dc:type
           rdf:resource="http://purl.org/dc/dcmitype/StillImage" />
        <dc:title></dc:title>
      </cc:Work>
    </rdf:RDF>
  </metadata>
  <defs
     id="defs5253" />
  <sodipodi:namedview
     fit-margin-bottom="0"
     fit-margin-right="0"
     fit-margin-left="0"
     fit-margin-top="0"
     inkscape:document-rotation="0"
     pagecolor="#ffffff"
     bordercolor="#666666"
     borderopacity="1"
     objecttolerance="10"
     gridtolerance="10"
     guidetolerance="10"
     inkscape:pageopacity="0"
     inkscape:pageshadow="2"
     inkscape:window-width="1366"
     inkscape:window-height="713"
     id="namedview5251"
     showgrid="false"
     inkscape:zoom="11.791667"
     inkscape:cx="9.0609899"
     inkscape:cy="14.593885"
     inkscape:window-x="0"
     inkscape:window-y="27"
     inkscape:window-maximized="1"
     inkscape:current-layer="svg5249" />
  <circle
     style="opacity:1;fill:#a32c36;fill-opacity:1;stroke:#ffffff;stroke-opacity:1"
     r="2"
     id="circle5245-3"
     opacity="0.3"
     cy="14.846876"
     cx="7.7071075" />
  <path
     sodipodi:nodetypes="cccccccccccccccsccccsssss"
     style="stroke:#ffffff;stroke-opacity:1"
     id="path5247-6"
     d="m 11.707107,4.8468738 h 4 v -4 H 9.7071068 v 4.61 l 2.0000002,2 z m -2.0000002,3.44 -7.59,-7.58 -1.41000002,1.41 9.00000002,9.0000002 v 0.28 c -0.94,-0.54 -2.1,-0.75 -3.33,-0.32 -1.34,0.48 -2.37,1.67 -2.61,3.07 -0.46,2.74 1.86,5.08 4.59,4.65 1.9600002,-0.31 3.3500002,-2.11 3.3500002,-4.1 v -1.58 l 5.73,5.73 1.41,-1.41 z m -2,8.5600002 c -1.1,0 -2,-0.9 -2,-2 0,-1.1 0.9,-2 2,-2 1.1,0 2,0.9 2,2 0,1.1 -0.9,2 -2,2 z" />
  <circle
     cx="7.7071066"
     cy="14.846874"
     opacity="0.3"
     id="circle5245"
     r="2"
     style="opacity:1;fill:#a32c36;fill-opacity:1" />
  <path
     sodipodi:nodetypes="cccccccccccccccsccccsssss"
     d="m 11.707107,4.8468738 h 4 v -4 H 9.7071068 v 4.61 l 2.0000002,2 z m -2.0000002,3.44 -7.59,-7.58 -1.41000002,1.41 9.00000002,9.0000002 v 0.28 c -0.94,-0.54 -2.1,-0.75 -3.33,-0.32 -1.34,0.48 -2.37,1.67 -2.61,3.07 -0.46,2.74 1.86,5.08 4.59,4.65 1.9600002,-0.31 3.3500002,-2.11 3.3500002,-4.1 v -1.58 l 5.73,5.73 1.41,-1.41 z m -2,8.5600002 c -1.1,0 -2,-0.9 -2,-2 0,-1.1 0.9,-2 2,-2 1.1,0 2,0.9 2,2 0,1.1 -0.9,2 -2,2 z"
     id="path5247" />
</svg>
