<?xml version="1.0" encoding="UTF-8" standalone="no"?>
<svg
   xmlns:dc="http://purl.org/dc/elements/1.1/"
   xmlns:cc="http://creativecommons.org/ns#"
   xmlns:rdf="http://www.w3.org/1999/02/22-rdf-syntax-ns#"
   xmlns:svg="http://www.w3.org/2000/svg"
   xmlns="http://www.w3.org/2000/svg"
   xmlns:sodipodi="http://sodipodi.sourceforge.net/DTD/sodipodi-0.dtd"
   xmlns:inkscape="http://www.inkscape.org/namespaces/inkscape"
   height="19.544107"
   viewBox="0 0 19.554319 19.544107"
   width="19.554319"
   version="1.1"
   id="svg1761"
   sodipodi:docname="SoundOffTelaInicio.svg"
   inkscape:version="1.0 (6e3e5246a0, 2020-05-07)">
  <metadata
     id="metadata1767">
    <rdf:RDF>
      <cc:Work
         rdf:about="">
        <dc:format>image/svg+xml</dc:format>
        <dc:type
           rdf:resource="http://purl.org/dc/dcmitype/StillImage" />
        <dc:title></dc:title>
      </cc:Work>
    </rdf:RDF>
  </metadata>
  <defs
     id="defs1765" />
  <sodipodi:namedview
     fit-margin-bottom="0"
     fit-margin-right="0"
     fit-margin-left="0"
     fit-margin-top="0"
     inkscape:document-rotation="0"
     pagecolor="#ffffff"
     bordercolor="#666666"
     borderopacity="1"
     objecttolerance="10"
     gridtolerance="10"
     guidetolerance="10"
     inkscape:pageopacity="0"
     inkscape:pageshadow="2"
     inkscape:window-width="1366"
     inkscape:window-height="713"
     id="namedview1763"
     showgrid="false"
     inkscape:zoom="16.675935"
     inkscape:cx="0.11483462"
     inkscape:cy="10.32148"
     inkscape:window-x="0"
     inkscape:window-y="27"
     inkscape:window-maximized="1"
     inkscape:current-layer="svg1761" />
  <path
     sodipodi:nodetypes="ccccccccccccccccccccccccsccsccsccccscccs"
     style="stroke:#f9f9f9;stroke-opacity:1"
     id="path1759-3"
     d="m 2.1171068,0.7070011 -1.41000002,1.41 4.36000002,4.36 -0.29,0.3 H 0.77710678 V 12.777001 H 4.7771068 l 4.9999998,5 v -6.59 l 4.1800004,4.18 c -0.65,0.49 -1.38,0.88 -2.18,1.11 v 2.06 c 1.34,-0.3 2.57,-0.92 3.61,-1.75 l 2.05,2.05 1.41,-1.41 z m 5.6599998,12.2399999 -2.17,-2.17 H 2.7771068 v -2 h 2.8299998 l 0.88,-0.88 1.29,1.29 z m 9.0000004,-3.17 c 0,0.82 -0.15,1.61 -0.41,2.34 l 1.53,1.53 c 0.56,-1.17 0.88,-2.48 0.88,-3.87 0,-4.2799999 -2.99,-7.8599999 -7,-8.7699999 v 2.06 c 2.89,0.86 5,3.54 5,6.7099999 z m -7.0000004,-7.9999999 -1.88,1.88 1.88,1.88 z M 14.277107,9.777001 c 0,-1.77 -1.02,-3.2899999 -2.5,-4.0299999 v 1.79 l 2.48,2.4799999 c 0.01,-0.08 0.02,-0.16 0.02,-0.24 z" />
  <path
     sodipodi:nodetypes="cccccccc"
     d="m 5.6071066,8.777001 h -2.83 v 2 h 2.83 l 2.17,2.17 v -3.76 l -1.29,-1.29 z"
     opacity=".3"
     id="path1757"
     style="opacity:1;fill:#a32c36;fill-opacity:1" />
  <path
     sodipodi:nodetypes="ccccccccccccccccccccccccsccsccsccccscccs"
     d="m 2.1171066,0.707001 -1.41000002,1.41 4.36000002,4.36 -0.29,0.3 H 0.77710658 v 6 H 4.7771066 l 5,5 v -6.59 l 4.1800004,4.18 c -0.65,0.49 -1.38,0.88 -2.18,1.11 v 2.06 c 1.34,-0.3 2.57,-0.92 3.61,-1.75 l 2.05,2.05 1.41,-1.41 z m 5.66,12.24 -2.17,-2.17 h -2.83 v -2 h 2.83 l 0.88,-0.88 1.29,1.29 z m 9.0000004,-3.17 c 0,0.82 -0.15,1.61 -0.41,2.34 l 1.53,1.53 c 0.56,-1.17 0.88,-2.48 0.88,-3.87 0,-4.28 -2.99,-7.86 -7,-8.77 v 2.06 c 2.89,0.86 5,3.54 5,6.71 z m -7.0000004,-8 -1.88,1.88 1.88,1.88 z m 4.5000004,8 c 0,-1.77 -1.02,-3.29 -2.5,-4.03 v 1.79 l 2.48,2.48 c 0.01,-0.08 0.02,-0.16 0.02,-0.24 z"
     id="path1759" />
</svg>
