<?xml version="1.0" encoding="UTF-8" standalone="no"?>
<svg
   xmlns:dc="http://purl.org/dc/elements/1.1/"
   xmlns:cc="http://creativecommons.org/ns#"
   xmlns:rdf="http://www.w3.org/1999/02/22-rdf-syntax-ns#"
   xmlns:svg="http://www.w3.org/2000/svg"
   xmlns="http://www.w3.org/2000/svg"
   xmlns:sodipodi="http://sodipodi.sourceforge.net/DTD/sodipodi-0.dtd"
   xmlns:inkscape="http://www.inkscape.org/namespaces/inkscape"
   inkscape:version="1.0 (6e3e5246a0, 2020-05-07)"
   sodipodi:docname="pause_circle_filled-24px.svg"
   id="svg4566"
   version="1.1"
   width="24"
   viewBox="0 0 24 24"
   height="24"
   enable-background="new 0 0 24 24">
  <metadata
     id="metadata4572">
    <rdf:RDF>
      <cc:Work
         rdf:about="">
        <dc:format>image/svg+xml</dc:format>
        <dc:type
           rdf:resource="http://purl.org/dc/dcmitype/StillImage" />
      </cc:Work>
    </rdf:RDF>
  </metadata>
  <defs
     id="defs4570" />
  <sodipodi:namedview
     inkscape:current-layer="g4562"
     inkscape:window-maximized="1"
     inkscape:window-y="27"
     inkscape:window-x="0"
     inkscape:cy="12"
     inkscape:cx="4.770318"
     inkscape:zoom="23.583333"
     showgrid="false"
     id="namedview4568"
     inkscape:window-height="713"
     inkscape:window-width="1366"
     inkscape:pageshadow="2"
     inkscape:pageopacity="0"
     guidetolerance="10"
     gridtolerance="10"
     objecttolerance="10"
     borderopacity="1"
     bordercolor="#666666"
     pagecolor="#ffffff" />
  <g
     id="g4550">
    <rect
       id="rect4544"
       width="24"
       height="24"
       fill="none" />
    <rect
       id="rect4546"
       width="24"
       height="24"
       fill="none" />
    <rect
       id="rect4548"
       width="24"
       height="24"
       fill="none" />
  </g>
  <g
     id="g4564">
    <g
       id="g4552" />
    <g
       id="g4562">
      <path
         style="fill:#a32c36;fill-opacity:1;opacity:1"
         id="path4554"
         opacity=".3"
         d="M12,4c-4.41,0-8,3.59-8,8c0,4.41,3.59,8,8,8s8-3.59,8-8C20,7.59,16.41,4,12,4z M11,16H9V8h2V16z M15,16h-2 V8h2V16z" />
      <rect
         id="rect4556"
         y="8"
         x="13"
         width="2"
         height="8" />
      <rect
         id="rect4558"
         y="8"
         x="9"
         width="2"
         height="8" />
      <path
         id="path4560"
         d="M12,2C6.48,2,2,6.48,2,12c0,5.52,4.48,10,10,10s10-4.48,10-10C22,6.48,17.52,2,12,2z M12,20c-4.41,0-8-3.59-8-8 c0-4.41,3.59-8,8-8s8,3.59,8,8C20,16.41,16.41,20,12,20z" />
    </g>
  </g>
</svg>
