<?xml version="1.0" encoding="UTF-8" standalone="no"?>
<svg
   xmlns:dc="http://purl.org/dc/elements/1.1/"
   xmlns:cc="http://creativecommons.org/ns#"
   xmlns:rdf="http://www.w3.org/1999/02/22-rdf-syntax-ns#"
   xmlns:svg="http://www.w3.org/2000/svg"
   xmlns="http://www.w3.org/2000/svg"
   xmlns:sodipodi="http://sodipodi.sourceforge.net/DTD/sodipodi-0.dtd"
   xmlns:inkscape="http://www.inkscape.org/namespaces/inkscape"
   inkscape:version="1.0 (6e3e5246a0, 2020-05-07)"
   sodipodi:docname="policy-24px.svg"
   id="svg2526"
   version="1.1"
   width="24"
   viewBox="0 0 24 24"
   height="24"
   enable-background="new 0 0 24 24">
  <metadata
     id="metadata2532">
    <rdf:RDF>
      <cc:Work
         rdf:about="">
        <dc:format>image/svg+xml</dc:format>
        <dc:type
           rdf:resource="http://purl.org/dc/dcmitype/StillImage" />
      </cc:Work>
    </rdf:RDF>
  </metadata>
  <defs
     id="defs2530" />
  <sodipodi:namedview
     inkscape:current-layer="g2522"
     inkscape:window-maximized="1"
     inkscape:window-y="27"
     inkscape:window-x="0"
     inkscape:cy="14.553996"
     inkscape:cx="-6.8561179"
     inkscape:zoom="8.3379675"
     showgrid="false"
     id="namedview2528"
     inkscape:window-height="713"
     inkscape:window-width="1366"
     inkscape:pageshadow="2"
     inkscape:pageopacity="0"
     guidetolerance="10"
     gridtolerance="10"
     objecttolerance="10"
     borderopacity="1"
     bordercolor="#666666"
     pagecolor="#ffffff" />
  <g
     id="g2514">
    <rect
       id="rect2512"
       width="24"
       height="24"
       fill="none" />
  </g>
  <g
     id="g2524">
    <g
       id="g2516" />
    <g
       id="g2522">
      <path
         sodipodi:nodetypes="cscccsssccsccc"
         style="opacity:1;fill:#a32c36;fill-opacity:1"
         id="path2518"
         opacity=".3"
         d="M 5,6.3 V 11 c 0,4.52 2.98,8.69 7,9.93 1.74,-0.53 4.720638,-2.000886 5.910638,-3.420886 L 16.300883,15.28395 C 14.360883,16.57395 10.17,17.24 8.46,15.53 c -1.95,-1.95 -1.95,-5.12 0,-7.07 1.95,-1.95 5.12,-1.95 7.07,0 1.71,1.71 1.173678,5.616577 -0.106322,7.556577 l 1.838246,2.134095 C 18.131924,16.600672 19,12.85 19,11 V 6.3 L 12,3.19 Z" />
      <path
         sodipodi:nodetypes="ccscccsccscccscccs"
         id="path2520"
         d="M 12,1 3,5 v 6 c 0,5.55 3.84,10.74 9,12 0.65,-0.16 1.27,-0.38 1.87,-0.65 1.8,-0.82 3.36,-2.13 4.57,-3.74 C 20.04,16.46 21,13.77 21,11 V 5 Z m 7,10 c 0,1.85 -0.51,3.65 -1.38,5.21 -0.196828,0.53341 -0.522097,0.707654 -1.15,1.69 C 15.28,19.32 13.74,20.41 12,20.94 7.98,19.69 5,15.52 5,11 V 6.3 l 7,-3.11 7,3.11 z" />
      <circle
         r="4.7289023"
         cy="12.001805"
         cx="11.984489"
         id="path3095"
         style="opacity:1;fill:#a32c36;fill-opacity:1;stroke:#000000;stroke-opacity:1" />
      <rect
         y="9.06394"
         x="11.729265"
         height="5.5964231"
         width="0.6059106"
         id="rect3101"
         style="opacity:1;fill:#a32c36;fill-opacity:1;stroke:#000000;stroke-opacity:1" />
      <rect
         transform="rotate(-89.15676)"
         style="opacity:1;fill:#a32c36;fill-opacity:1;stroke:#000000;stroke-opacity:1"
         id="rect3101-3"
         width="0.6059106"
         height="5.5964231"
         x="-11.900264"
         y="9.4205618" />
    </g>
  </g>
</svg>
